# xmcd
#
# Track frame offsets:
# 150
# 17827
# 32115
# 46542
# 64672
# 80762
# 96790
# 116650
# 135745
# 153777
#
# Disc length: 2236 seconds
#
#
# Revision: 0
# Processed by: cddbd v1.5.1PL2 Copyright (c) Steve Scherf et al.
# Submitted via: FreeRIP 2.944 
#
DISCID=7708ba0a
DTITLE=Steve Morgan - Heaven Help Me...
DYEAR=1900
DGENRE=Blues
TTITLE0=My Hearts On Fire
TTITLE1=Aripeeka Bay
TTITLE2=Hurt By Love
TTITLE3=When I'm Gone
TTITLE4=Shadow Dancing
TTITLE5=Heaven Help Me
TTITLE6=Diesel Roll
TTITLE7=I Don't Need You
TTITLE8=Kill'in The Blues
TTITLE9=Lovers And Gamblers
EXTD=www.frodehoydal.com
EXTT0=
EXTT1=
EXTT2=
EXTT3=
EXTT4=
EXTT5=
EXTT6=
EXTT7=
EXTT8=
EXTT9=
PLAYORDER=
